<mxfile host="Electron" modified="2023-08-27T10:42:48.923Z" agent="Mozilla/5.0 (Windows NT 10.0; Win64; x64) AppleWebKit/537.36 (KHTML, like Gecko) draw.io/21.6.5 Chrome/114.0.5735.243 Electron/25.3.1 Safari/537.36" etag="qU1yxfBwl6kCBF4lkFAc" version="21.6.5" type="device">
  <diagram name="第 1 页" id="77sZ5vG2opPDJuYnOLY6">
    <mxGraphModel dx="989" dy="577" grid="0" gridSize="10" guides="1" tooltips="1" connect="1" arrows="1" fold="1" page="1" pageScale="1" pageWidth="827" pageHeight="1169" math="0" shadow="0">
      <root>
        <mxCell id="0" />
        <mxCell id="1" parent="0" />
        <mxCell id="-OjynZY-kV28UHhf5I_6-7" style="rounded=0;orthogonalLoop=1;jettySize=auto;html=1;exitX=0.374;exitY=0.948;exitDx=0;exitDy=0;entryX=0;entryY=0.5;entryDx=0;entryDy=0;exitPerimeter=0;" edge="1" parent="1" source="-OjynZY-kV28UHhf5I_6-1" target="-OjynZY-kV28UHhf5I_6-2">
          <mxGeometry relative="1" as="geometry" />
        </mxCell>
        <mxCell id="-OjynZY-kV28UHhf5I_6-8" style="rounded=0;orthogonalLoop=1;jettySize=auto;html=1;" edge="1" parent="1" source="-OjynZY-kV28UHhf5I_6-1" target="-OjynZY-kV28UHhf5I_6-3">
          <mxGeometry relative="1" as="geometry" />
        </mxCell>
        <mxCell id="-OjynZY-kV28UHhf5I_6-1" value="func1" style="ellipse;whiteSpace=wrap;html=1;aspect=fixed;fillColor=#d5e8d4;strokeColor=#82b366;" vertex="1" parent="1">
          <mxGeometry x="60" y="87" width="46" height="46" as="geometry" />
        </mxCell>
        <mxCell id="-OjynZY-kV28UHhf5I_6-9" style="rounded=0;orthogonalLoop=1;jettySize=auto;html=1;exitX=1;exitY=0.5;exitDx=0;exitDy=0;entryX=0;entryY=0.5;entryDx=0;entryDy=0;" edge="1" parent="1" source="-OjynZY-kV28UHhf5I_6-2" target="-OjynZY-kV28UHhf5I_6-4">
          <mxGeometry relative="1" as="geometry" />
        </mxCell>
        <mxCell id="-OjynZY-kV28UHhf5I_6-12" style="rounded=0;orthogonalLoop=1;jettySize=auto;html=1;exitX=0.5;exitY=0;exitDx=0;exitDy=0;entryX=0.028;entryY=0.743;entryDx=0;entryDy=0;entryPerimeter=0;" edge="1" parent="1" source="-OjynZY-kV28UHhf5I_6-2" target="-OjynZY-kV28UHhf5I_6-3">
          <mxGeometry relative="1" as="geometry" />
        </mxCell>
        <mxCell id="-OjynZY-kV28UHhf5I_6-2" value="func2" style="ellipse;whiteSpace=wrap;html=1;aspect=fixed;" vertex="1" parent="1">
          <mxGeometry x="109" y="146" width="46" height="46" as="geometry" />
        </mxCell>
        <mxCell id="-OjynZY-kV28UHhf5I_6-10" style="rounded=0;orthogonalLoop=1;jettySize=auto;html=1;exitX=1;exitY=0.5;exitDx=0;exitDy=0;entryX=0;entryY=0.5;entryDx=0;entryDy=0;" edge="1" parent="1" source="-OjynZY-kV28UHhf5I_6-3" target="-OjynZY-kV28UHhf5I_6-5">
          <mxGeometry relative="1" as="geometry" />
        </mxCell>
        <mxCell id="-OjynZY-kV28UHhf5I_6-3" value="func3" style="ellipse;whiteSpace=wrap;html=1;aspect=fixed;" vertex="1" parent="1">
          <mxGeometry x="169" y="44" width="46" height="46" as="geometry" />
        </mxCell>
        <mxCell id="-OjynZY-kV28UHhf5I_6-13" style="rounded=0;orthogonalLoop=1;jettySize=auto;html=1;exitX=1;exitY=0.5;exitDx=0;exitDy=0;entryX=0;entryY=0.5;entryDx=0;entryDy=0;" edge="1" parent="1" source="-OjynZY-kV28UHhf5I_6-4" target="-OjynZY-kV28UHhf5I_6-5">
          <mxGeometry relative="1" as="geometry" />
        </mxCell>
        <mxCell id="-OjynZY-kV28UHhf5I_6-4" value="func4" style="ellipse;whiteSpace=wrap;html=1;aspect=fixed;" vertex="1" parent="1">
          <mxGeometry x="192" y="146" width="46" height="46" as="geometry" />
        </mxCell>
        <mxCell id="-OjynZY-kV28UHhf5I_6-34" style="edgeStyle=orthogonalEdgeStyle;rounded=0;orthogonalLoop=1;jettySize=auto;html=1;exitX=1;exitY=0.5;exitDx=0;exitDy=0;" edge="1" parent="1" source="-OjynZY-kV28UHhf5I_6-5">
          <mxGeometry relative="1" as="geometry">
            <mxPoint x="371.6896551724137" y="116.79310344827593" as="targetPoint" />
          </mxGeometry>
        </mxCell>
        <mxCell id="-OjynZY-kV28UHhf5I_6-5" value="func5" style="ellipse;whiteSpace=wrap;html=1;aspect=fixed;" vertex="1" parent="1">
          <mxGeometry x="283" y="94" width="46" height="46" as="geometry" />
        </mxCell>
        <mxCell id="-OjynZY-kV28UHhf5I_6-14" value="" style="endArrow=classic;html=1;rounded=0;entryX=0;entryY=0.5;entryDx=0;entryDy=0;" edge="1" parent="1" target="-OjynZY-kV28UHhf5I_6-1">
          <mxGeometry width="50" height="50" relative="1" as="geometry">
            <mxPoint x="23" y="110" as="sourcePoint" />
            <mxPoint x="33" y="116" as="targetPoint" />
          </mxGeometry>
        </mxCell>
        <mxCell id="-OjynZY-kV28UHhf5I_6-15" style="rounded=0;orthogonalLoop=1;jettySize=auto;html=1;exitX=0.5;exitY=1;exitDx=0;exitDy=0;entryX=0;entryY=0.5;entryDx=0;entryDy=0;" edge="1" parent="1" source="-OjynZY-kV28UHhf5I_6-17" target="-OjynZY-kV28UHhf5I_6-20">
          <mxGeometry relative="1" as="geometry" />
        </mxCell>
        <mxCell id="-OjynZY-kV28UHhf5I_6-16" style="rounded=0;orthogonalLoop=1;jettySize=auto;html=1;" edge="1" parent="1" source="-OjynZY-kV28UHhf5I_6-17" target="-OjynZY-kV28UHhf5I_6-22">
          <mxGeometry relative="1" as="geometry" />
        </mxCell>
        <mxCell id="-OjynZY-kV28UHhf5I_6-17" value="func1" style="ellipse;whiteSpace=wrap;html=1;aspect=fixed;fillColor=#d5e8d4;strokeColor=#82b366;" vertex="1" parent="1">
          <mxGeometry x="91" y="276" width="46" height="46" as="geometry" />
        </mxCell>
        <mxCell id="-OjynZY-kV28UHhf5I_6-18" style="rounded=0;orthogonalLoop=1;jettySize=auto;html=1;exitX=1;exitY=0.5;exitDx=0;exitDy=0;entryX=0;entryY=0.5;entryDx=0;entryDy=0;" edge="1" parent="1" source="-OjynZY-kV28UHhf5I_6-20" target="-OjynZY-kV28UHhf5I_6-24">
          <mxGeometry relative="1" as="geometry" />
        </mxCell>
        <mxCell id="-OjynZY-kV28UHhf5I_6-19" style="rounded=0;orthogonalLoop=1;jettySize=auto;html=1;exitX=0.5;exitY=0;exitDx=0;exitDy=0;entryX=0.028;entryY=0.743;entryDx=0;entryDy=0;entryPerimeter=0;" edge="1" parent="1" source="-OjynZY-kV28UHhf5I_6-20" target="-OjynZY-kV28UHhf5I_6-22">
          <mxGeometry relative="1" as="geometry" />
        </mxCell>
        <mxCell id="-OjynZY-kV28UHhf5I_6-33" style="rounded=0;orthogonalLoop=1;jettySize=auto;html=1;exitX=0.5;exitY=1;exitDx=0;exitDy=0;entryX=0.5;entryY=0;entryDx=0;entryDy=0;" edge="1" parent="1" source="-OjynZY-kV28UHhf5I_6-20" target="-OjynZY-kV28UHhf5I_6-29">
          <mxGeometry relative="1" as="geometry" />
        </mxCell>
        <mxCell id="-OjynZY-kV28UHhf5I_6-20" value="func2" style="ellipse;whiteSpace=wrap;html=1;aspect=fixed;fillColor=#f8cecc;strokeColor=#b85450;" vertex="1" parent="1">
          <mxGeometry x="140" y="335" width="46" height="46" as="geometry" />
        </mxCell>
        <mxCell id="-OjynZY-kV28UHhf5I_6-21" style="rounded=0;orthogonalLoop=1;jettySize=auto;html=1;exitX=1;exitY=0.5;exitDx=0;exitDy=0;entryX=0;entryY=0.5;entryDx=0;entryDy=0;" edge="1" parent="1" source="-OjynZY-kV28UHhf5I_6-22" target="-OjynZY-kV28UHhf5I_6-25">
          <mxGeometry relative="1" as="geometry" />
        </mxCell>
        <mxCell id="-OjynZY-kV28UHhf5I_6-22" value="func3" style="ellipse;whiteSpace=wrap;html=1;aspect=fixed;" vertex="1" parent="1">
          <mxGeometry x="200" y="233" width="46" height="46" as="geometry" />
        </mxCell>
        <mxCell id="-OjynZY-kV28UHhf5I_6-23" style="rounded=0;orthogonalLoop=1;jettySize=auto;html=1;exitX=1;exitY=0.5;exitDx=0;exitDy=0;entryX=0;entryY=0.5;entryDx=0;entryDy=0;" edge="1" parent="1" source="-OjynZY-kV28UHhf5I_6-24" target="-OjynZY-kV28UHhf5I_6-25">
          <mxGeometry relative="1" as="geometry" />
        </mxCell>
        <mxCell id="-OjynZY-kV28UHhf5I_6-24" value="func4" style="ellipse;whiteSpace=wrap;html=1;aspect=fixed;" vertex="1" parent="1">
          <mxGeometry x="223" y="335" width="46" height="46" as="geometry" />
        </mxCell>
        <mxCell id="-OjynZY-kV28UHhf5I_6-36" style="edgeStyle=orthogonalEdgeStyle;rounded=0;orthogonalLoop=1;jettySize=auto;html=1;exitX=1;exitY=0.5;exitDx=0;exitDy=0;" edge="1" parent="1" source="-OjynZY-kV28UHhf5I_6-25">
          <mxGeometry relative="1" as="geometry">
            <mxPoint x="405.62068965517255" y="305.79310344827593" as="targetPoint" />
          </mxGeometry>
        </mxCell>
        <mxCell id="-OjynZY-kV28UHhf5I_6-25" value="func5" style="ellipse;whiteSpace=wrap;html=1;aspect=fixed;" vertex="1" parent="1">
          <mxGeometry x="314" y="283" width="46" height="46" as="geometry" />
        </mxCell>
        <mxCell id="-OjynZY-kV28UHhf5I_6-26" value="" style="endArrow=classic;html=1;rounded=0;entryX=0;entryY=0.5;entryDx=0;entryDy=0;" edge="1" parent="1" target="-OjynZY-kV28UHhf5I_6-17">
          <mxGeometry width="50" height="50" relative="1" as="geometry">
            <mxPoint x="54" y="299" as="sourcePoint" />
            <mxPoint x="64" y="305" as="targetPoint" />
          </mxGeometry>
        </mxCell>
        <mxCell id="-OjynZY-kV28UHhf5I_6-28" style="rounded=0;orthogonalLoop=1;jettySize=auto;html=1;exitX=0.5;exitY=0;exitDx=0;exitDy=0;entryX=0;entryY=0.5;entryDx=0;entryDy=0;" edge="1" parent="1" source="-OjynZY-kV28UHhf5I_6-27" target="-OjynZY-kV28UHhf5I_6-20">
          <mxGeometry relative="1" as="geometry" />
        </mxCell>
        <mxCell id="-OjynZY-kV28UHhf5I_6-30" style="edgeStyle=orthogonalEdgeStyle;rounded=0;orthogonalLoop=1;jettySize=auto;html=1;exitX=1;exitY=0.5;exitDx=0;exitDy=0;entryX=0;entryY=0.5;entryDx=0;entryDy=0;" edge="1" parent="1" source="-OjynZY-kV28UHhf5I_6-27" target="-OjynZY-kV28UHhf5I_6-29">
          <mxGeometry relative="1" as="geometry" />
        </mxCell>
        <mxCell id="-OjynZY-kV28UHhf5I_6-27" value="func6" style="ellipse;whiteSpace=wrap;html=1;aspect=fixed;fillColor=#d5e8d4;strokeColor=#82b366;" vertex="1" parent="1">
          <mxGeometry x="87" y="403" width="46" height="46" as="geometry" />
        </mxCell>
        <mxCell id="-OjynZY-kV28UHhf5I_6-32" style="edgeStyle=orthogonalEdgeStyle;rounded=0;orthogonalLoop=1;jettySize=auto;html=1;exitX=1;exitY=0.5;exitDx=0;exitDy=0;entryX=0;entryY=0.5;entryDx=0;entryDy=0;" edge="1" parent="1" source="-OjynZY-kV28UHhf5I_6-29" target="-OjynZY-kV28UHhf5I_6-31">
          <mxGeometry relative="1" as="geometry" />
        </mxCell>
        <mxCell id="-OjynZY-kV28UHhf5I_6-29" value="func7" style="ellipse;whiteSpace=wrap;html=1;aspect=fixed;" vertex="1" parent="1">
          <mxGeometry x="159" y="403" width="46" height="46" as="geometry" />
        </mxCell>
        <mxCell id="-OjynZY-kV28UHhf5I_6-37" style="edgeStyle=orthogonalEdgeStyle;rounded=0;orthogonalLoop=1;jettySize=auto;html=1;exitX=1;exitY=0.5;exitDx=0;exitDy=0;" edge="1" parent="1" source="-OjynZY-kV28UHhf5I_6-31">
          <mxGeometry relative="1" as="geometry">
            <mxPoint x="339.41379310344837" y="425.79310344827593" as="targetPoint" />
          </mxGeometry>
        </mxCell>
        <mxCell id="-OjynZY-kV28UHhf5I_6-31" value="func8" style="ellipse;whiteSpace=wrap;html=1;aspect=fixed;" vertex="1" parent="1">
          <mxGeometry x="243" y="403" width="46" height="46" as="geometry" />
        </mxCell>
        <mxCell id="-OjynZY-kV28UHhf5I_6-38" value="" style="endArrow=classic;html=1;rounded=0;entryX=0;entryY=0.5;entryDx=0;entryDy=0;" edge="1" parent="1" target="-OjynZY-kV28UHhf5I_6-27">
          <mxGeometry width="50" height="50" relative="1" as="geometry">
            <mxPoint x="46" y="426" as="sourcePoint" />
            <mxPoint x="102" y="501" as="targetPoint" />
          </mxGeometry>
        </mxCell>
        <mxCell id="-OjynZY-kV28UHhf5I_6-39" value="request" style="text;html=1;strokeColor=none;fillColor=none;align=center;verticalAlign=middle;whiteSpace=wrap;rounded=0;" vertex="1" parent="1">
          <mxGeometry x="36" y="265" width="60" height="30" as="geometry" />
        </mxCell>
        <mxCell id="-OjynZY-kV28UHhf5I_6-40" value="request" style="text;html=1;strokeColor=none;fillColor=none;align=center;verticalAlign=middle;whiteSpace=wrap;rounded=0;" vertex="1" parent="1">
          <mxGeometry x="31" y="395" width="60" height="30" as="geometry" />
        </mxCell>
      </root>
    </mxGraphModel>
  </diagram>
</mxfile>
